<svg xmlns="http://www.w3.org/2000/svg" viewBox="0 0 32 32">
<path fill="#25D366" d="M16.02 3C8.84 3 3 8.79 3 15.92c0 2.51.74 4.95 2.13 7.03L3.73 29l6.23-1.63a13.07 13.07 0 0 0 6.06 1.54c7.18 0 13.02-5.79 13.02-12.92C29.04 8.79 23.2 3 16.02 3zm0 23.56c-1.93 0-3.82-.52-5.47-1.51l-.39-.23-3.7.97.99-3.6-.25-.37a10.43 10.43 0 0 1-1.62-5.62c0-5.78 4.75-10.49 10.58-10.49s10.58 4.7 10.58 10.49-4.75 10.36-10.58 10.36z"/>
<path fill="#25D366" d="M19.11 17.21c-.27-.14-1.6-.79-1.85-.88-.25-.09-.43-.14-.61.14-.18.27-.7.88-.86 1.06-.16.18-.32.2-.59.07-.27-.14-1.13-.42-2.15-1.34-.8-.71-1.34-1.59-1.5-1.86-.16-.27-.02-.41.12-.54.13-.13.27-.32.41-.48.14-.16.18-.27.27-.45.09-.18.05-.34-.02-.48-.07-.14-.61-1.47-.84-2.02-.22-.53-.45-.46-.61-.47h-.52c-.18 0-.48.07-.73.34-.25.27-.95.93-.95 2.27s.98 2.64 1.11 2.82c.14.18 1.92 2.93 4.65 4.11.65.28 1.15.45 1.54.58.65.21 1.25.18 1.72.11.52-.08 1.6-.65 1.83-1.28.23-.63.23-1.17.16-1.28-.07-.11-.25-.18-.52-.32z"/>
</svg>
